<svg width="313" height="1024" viewBox="0 0 313 1024" fill="none" xmlns="http://www.w3.org/2000/svg">
<path fill-rule="evenodd" clip-rule="evenodd" d="M202.352 1081C174.32 1055.16 170 1044.89 170 1032.65C170 1019.93 174.086 1010.44 211.862 978.019C213.859 976.304 216.129 974.41 218.618 972.332C249.21 946.793 313 893.541 313 806.299C313 761.242 293.116 724.292 275.838 699.006C258.796 674.064 237.188 650.576 220.44 632.372L219.062 630.874C200.095 610.252 186.652 595.447 177.281 581.881C173.77 576.798 171.848 573.29 170.825 571.168C171.919 568.378 174.324 563.047 179.519 554.696C189.633 538.438 203.983 520.417 222.571 497.45C223.345 496.494 224.129 495.527 224.92 494.549C241.455 474.133 261.621 449.232 277.443 424.278C293.069 399.632 313 362.244 313 318.587C313 270.686 289.669 235.256 270.5 212.639C256.605 196.245 238.152 179.29 224.412 166.666L224.412 166.665L224.411 166.664C220.826 163.37 217.561 160.371 214.783 157.754C181.341 126.251 170 108.207 170 84.0938C170 83.1757 170.106 78.4612 177.65 67.3579C185.775 55.4004 198.023 42.4321 216.005 24.804C218.063 22.786 220.258 20.6515 222.558 18.4147L222.559 18.4131C235.104 6.21236 250.779 -9.0319 264.525 -25H34.9081C16.4798 2.97839 0 39.638 0 84.0938C0 184.147 60.1594 245.647 98.2169 281.497C105.018 287.904 110.766 293.199 115.734 297.777C126.799 307.971 133.996 314.602 140.341 322C138.95 324.761 136.894 328.476 133.87 333.246C123.637 349.385 109.236 367.262 90.4287 390.5L89.7299 391.363C72.689 412.417 51.6414 438.421 35.1689 464.901C19.2508 490.49 0 528.087 0 571.806C0 616.872 20.272 653.694 37.4064 678.499C54.1106 702.682 75.2762 725.679 91.7791 743.61L91.7796 743.611L92.7281 744.641L93.9377 745.956C112.76 766.421 126.175 781.302 135.474 794.912C140.361 802.064 142.215 806.222 142.862 807.887C141.855 810.848 135.679 819.374 101.138 849.021C100.512 849.559 99.8734 850.106 99.2242 850.663L99.1563 850.721C64.8463 880.132 0 935.719 0 1032.65C0 1050.02 2.08179 1066.11 5.69763 1081H202.352ZM143 806.299C143 806.644 143.009 806.955 143.023 807.229C143.064 806.922 143.039 806.704 143.018 806.527C143.009 806.444 143 806.369 143 806.299ZM144.887 327.996C144.888 327.996 144.869 327.958 144.825 327.881C144.863 327.957 144.885 327.995 144.887 327.996Z" fill="#3D5F37"/>
</svg>
