<svg width="314" height="1024" viewBox="0 0 314 1024" fill="none" xmlns="http://www.w3.org/2000/svg">
<path fill-rule="evenodd" clip-rule="evenodd" d="M111.148 1081C139.18 1055.16 143.5 1044.89 143.5 1032.65C143.5 1019.93 139.414 1010.44 101.638 978.019C99.6409 976.304 97.3713 974.41 94.882 972.332C64.2901 946.793 0.5 893.541 0.5 806.299C0.5 761.242 20.3844 724.292 37.6619 699.006C54.7039 674.064 76.3123 650.576 93.0603 632.372L94.4377 630.874C113.405 610.252 126.848 595.447 136.219 581.881C139.73 576.798 141.652 573.29 142.675 571.168C141.581 568.378 139.176 563.047 133.981 554.696C123.867 538.438 109.517 520.417 90.9288 497.45C90.1547 496.494 89.3715 495.527 88.5799 494.549C72.0455 474.133 51.8793 449.232 36.0572 424.278C20.4308 399.632 0.500031 362.244 0.5 318.587C0.499954 270.686 23.831 235.256 43.0003 212.639C56.8945 196.245 75.3485 179.29 89.0881 166.666L89.0885 166.665L89.0894 166.664C92.6745 163.37 95.9386 160.371 98.7169 157.754C132.159 126.251 143.5 108.207 143.5 84.0938C143.5 83.1757 143.394 78.4612 135.85 67.3579C127.725 55.4004 115.477 42.4321 97.4954 24.804C95.4371 22.786 93.2423 20.6515 90.9424 18.4147L90.9407 18.4131C78.3958 6.21236 62.7214 -9.0319 48.975 -25H278.592C297.02 2.97839 313.5 39.638 313.5 84.0938C313.5 184.147 253.341 245.647 215.283 281.497C208.482 287.904 202.734 293.199 197.766 297.777C186.701 307.971 179.504 314.602 173.159 322C174.55 324.761 176.606 328.476 179.63 333.246C189.863 349.385 204.264 367.262 223.071 390.5L223.77 391.363C240.811 412.417 261.859 438.421 278.331 464.901C294.249 490.49 313.5 528.087 313.5 571.806C313.5 616.872 293.228 653.694 276.094 678.499C259.389 702.682 238.224 725.679 221.721 743.61L221.72 743.611L220.772 744.641L219.562 745.956C200.74 766.421 187.325 781.302 178.026 794.912C173.139 802.064 171.285 806.222 170.638 807.887C171.645 810.848 177.821 819.374 212.362 849.021C212.988 849.559 213.627 850.106 214.276 850.663L214.344 850.721C248.654 880.132 313.5 935.719 313.5 1032.65C313.5 1050.02 311.418 1066.11 307.802 1081H111.148ZM170.5 806.299C170.5 806.644 170.491 806.955 170.477 807.229C170.436 806.922 170.461 806.704 170.482 806.527C170.491 806.444 170.5 806.369 170.5 806.299ZM168.613 327.996C168.612 327.996 168.631 327.958 168.675 327.881C168.637 327.957 168.615 327.995 168.613 327.996Z" fill="#62955A"/>
</svg>
